<svg width="64" height="64" viewBox="0 0 64 64" fill="none" xmlns="http://www.w3.org/2000/svg">
<path fill-rule="evenodd" clip-rule="evenodd" d="M17.5312 49.8848L28 55.4668V60L15.6484 53.414C12.1269 51.5408 9.18203 48.7439 7.12985 45.3236C5.07767 41.9033 3.99568 37.9887 4.00001 34V8C4.00123 6.93951 4.42305 5.9228 5.17293 5.17292C5.92281 4.42304 6.93952 4.00122 8.00001 4H48C49.0605 4.00122 50.0772 4.42304 50.8271 5.17292C51.577 5.9228 51.9988 6.93951 52 8V20H48V8H8.00001V34C7.99665 37.2636 8.88206 40.4666 10.5612 43.2651C12.2404 46.0636 14.6499 48.352 17.5312 49.8848ZM30 30C28.4178 30 26.871 29.5308 25.5554 28.6518C24.2398 27.7727 23.2145 26.5233 22.609 25.0615C22.0035 23.5997 21.845 21.9911 22.1537 20.4393C22.4624 18.8874 23.2243 17.462 24.3431 16.3431C25.462 15.2243 26.8874 14.4624 28.4393 14.1537C29.9911 13.845 31.5997 14.0035 33.0615 14.609C34.5233 15.2145 35.7727 16.2398 36.6518 17.5554C37.5308 18.871 38 20.4178 38 22C37.9976 24.121 37.154 26.1545 35.6542 27.6542C34.1545 29.154 32.121 29.9976 30 30ZM30 18C29.2089 18 28.4355 18.2346 27.7777 18.6741C27.1199 19.1137 26.6072 19.7384 26.3045 20.4693C26.0017 21.2002 25.9225 22.0044 26.0769 22.7804C26.2312 23.5563 26.6122 24.269 27.1716 24.8284C27.731 25.3878 28.4437 25.7688 29.2196 25.9231C29.9956 26.0775 30.7998 25.9983 31.5307 25.6955C32.2616 25.3928 32.8864 24.8801 33.3259 24.2223C33.7654 23.5645 34 22.7911 34 22C33.9989 20.9395 33.5771 19.9227 32.8272 19.1728C32.0773 18.4229 31.0605 18.0011 30 18ZM22 42H18V38C18.0017 36.4092 18.6344 34.8841 19.7593 33.7593C20.8841 32.6344 22.4092 32.0017 24 32H36V36H24C23.4697 36.0006 22.9614 36.2115 22.5864 36.5864C22.2115 36.9614 22.0006 37.4697 22 38V42ZM43.5554 42.6518C44.871 43.5308 46.4178 44 48 44C50.121 43.9976 52.1545 43.154 53.6542 41.6542C55.154 40.1545 55.9976 38.121 56 36C56 34.4178 55.5308 32.871 54.6518 31.5554C53.7727 30.2398 52.5233 29.2145 51.0615 28.609C49.5997 28.0035 47.9911 27.845 46.4393 28.1537C44.8874 28.4624 43.462 29.2243 42.3432 30.3431C41.2243 31.462 40.4624 32.8874 40.1537 34.4393C39.845 35.9911 40.0035 37.5997 40.609 39.0615C41.2145 40.5233 42.2398 41.7727 43.5554 42.6518ZM45.7777 32.6741C46.4355 32.2346 47.2089 32 48 32C49.0605 32.0011 50.0773 32.4229 50.8272 33.1728C51.5771 33.9227 51.9989 34.9395 52 36C52 36.7911 51.7654 37.5645 51.3259 38.2223C50.8864 38.8801 50.2616 39.3928 49.5307 39.6955C48.7998 39.9983 47.9956 40.0775 47.2196 39.9231C46.4437 39.7688 45.731 39.3878 45.1716 38.8284C44.6122 38.269 44.2312 37.5563 44.0769 36.7804C43.9225 36.0044 44.0017 35.2002 44.3045 34.4693C44.6072 33.7384 45.1199 33.1137 45.7777 32.6741ZM60 56H56V52C55.9994 51.4697 55.7885 50.9614 55.4136 50.5864C55.0386 50.2115 54.5303 50.0006 54 50H42C41.4697 50.0006 40.9614 50.2115 40.5864 50.5864C40.2115 50.9614 40.0006 51.4697 40 52V56H36V52C36.0017 50.4092 36.6344 48.8841 37.7593 47.7593C38.8841 46.6344 40.4092 46.0017 42 46H54C55.5908 46.0017 57.1159 46.6344 58.2407 47.7593C59.3656 48.8841 59.9983 50.4092 60 52V56Z" fill="#1010EB"/>
</svg>
